<svg width="84" height="84" viewBox="0 0 84 84" fill="none" xmlns="http://www.w3.org/2000/svg">
<path d="M41.834 0C64.9382 0 83.6678 18.7298 83.668 41.834C83.668 43.8479 83.5253 45.8287 83.25 47.7666V47.7686H67.7451C65.1491 59.5488 54.6493 68.3632 42.0889 68.3633C27.5786 68.363 15.8157 56.6001 15.8154 42.0898C15.8154 27.5793 27.5784 15.8157 42.0889 15.8154C54.1265 15.8155 63.7899 22.3823 66.8916 33.4033C67.1927 34.3215 66.9898 35.3687 66.2734 36.1016C65.2507 37.1475 63.5736 37.1561 62.5273 36.1201C62.2474 35.8428 62.0408 35.5177 61.9082 35.1719L61.9131 35.1699C58.9001 27.4396 51.1619 21.9376 42.0889 21.9375C30.396 21.9377 20.917 31.0745 20.917 42.3447C20.9172 53.6148 30.3961 62.7517 42.0889 62.752C51.8328 62.7519 60.0378 56.4064 62.5029 47.7695L47.417 47.7705V47.7646C46.0036 47.7488 44.6579 46.9434 44.0332 45.585C43.1717 43.7111 44.0077 41.4994 45.8994 40.6445C46.3922 40.4219 46.9082 40.3143 47.417 40.3086V40.3027H75.4531C74.4891 23.242 59.807 9.69336 41.834 9.69336C23.2379 9.69342 8.16309 24.1981 8.16309 42.0898C8.16336 59.9813 23.238 74.4853 41.834 74.4854C55.388 74.4854 67.0689 66.7788 72.4082 55.6729L72.3633 55.79L72.3643 55.791C73.0158 54.3658 74.4546 53.3762 76.124 53.376C78.4056 53.3761 80.2557 55.2253 80.2559 57.5068C80.2558 58.1168 80.1221 58.6957 79.8848 59.2168L79.8896 59.2197L79.9014 59.2021C73.3049 73.637 58.7417 83.668 41.834 83.668C18.7297 83.6679 0 64.9383 0 41.834C0.000149539 18.7298 18.7298 6.70826e-05 41.834 0Z" fill="#2763C0"/>
</svg>
