<svg width="32" height="32" viewBox="0 0 32 32" fill="none" xmlns="http://www.w3.org/2000/svg">
<path d="M15.5908 0C24.2013 1.41114e-05 31.1815 6.98023 31.1815 15.5908C31.1815 16.3414 31.1282 17.0797 31.0256 17.802V17.8025L25.1528 17.8027C24.1853 22.1929 20.2717 25.4776 15.5908 25.4776C10.1829 25.4776 5.799 21.0937 5.799 15.6858C5.799 10.278 10.1829 5.89407 15.5908 5.89407C20.0772 5.89408 23.6786 8.34161 24.8344 12.4493C24.844 12.4786 24.8527 12.508 24.8595 12.5379C24.8597 12.5388 24.86 12.5398 24.8602 12.5407H24.8598C24.9317 12.8592 24.8471 13.2055 24.6038 13.4544C24.2226 13.8443 23.5975 13.8473 23.2075 13.4611C23.1032 13.3577 23.0265 13.2368 22.9771 13.1079L22.979 13.1072C21.8561 10.2261 18.9722 8.17565 15.5908 8.17564C11.233 8.17564 7.70031 11.5806 7.70031 15.7809C7.70031 19.9812 11.233 23.3861 15.5908 23.3861C19.2221 23.3861 22.2799 21.0216 23.1986 17.8029L17.6712 17.8033V17.801C17.1446 17.795 16.6433 17.4947 16.4105 16.9885C16.0894 16.2902 16.4008 15.4656 17.1059 15.147C17.2895 15.0641 17.4817 15.0242 17.6712 15.022V15.02H28.1203C27.7611 8.66177 22.289 3.61251 15.5908 3.61249C8.66033 3.61249 3.0421 9.01791 3.0421 15.6858C3.0421 22.3537 8.66033 27.7592 15.5908 27.7592C20.6391 27.7591 24.9911 24.8908 26.9825 20.7557L26.9684 20.7919L26.9693 20.7923C27.2121 20.2611 27.7478 19.8919 28.37 19.8919C29.2204 19.8919 29.9098 20.5812 29.9098 21.4315C29.9098 21.6589 29.86 21.8745 29.7715 22.0688L29.7734 22.0697L29.7793 22.0612C27.3215 27.4421 21.8929 31.1815 15.5908 31.1815C6.98022 31.1815 0 24.2013 0 15.5908C0 6.98022 6.98022 0 15.5908 0Z" fill="#2763C0"/>
</svg>
